# xmcd
#
# Track frame offsets:
#	150
#	18455
#	37719
#	55666
#	73840
#	94565
#	108964
#	124701
#	136696
#	153688
#
# Disc length: 2528 seconds
#
# Revision: 0
# Processed by: cddbd v1.5.2PL0 Copyright (c) Steve Scherf et al.
# Submitted via: EasyCDDAExtractor 12.0.0.1
#
DISCID=7709de0a
DTITLE=Janis Joplin's - Greatest Hits
DYEAR=1900
DGENRE=
TTITLE0=Piece Of My Heart
TTITLE1=Summertime
TTITLE2=Try
TTITLE3=Cry Baby
TTITLE4=Me And Bobby McGee
TTITLE5=Down On Me
TTITLE6=Get It While You Can
TTITLE7=Bye Bye Baby
TTITLE8=Movie Over
TTITLE9=Ball And Chain
EXTD=
EXTT0=
EXTT1=
EXTT2=
EXTT3=
EXTT4=
EXTT5=
EXTT6=
EXTT7=
EXTT8=
EXTT9=
PLAYORDER=
